<svg id="Big_Left_Arm" data-name="Big Left Arm" xmlns="http://www.w3.org/2000/svg" xmlns:xlink="http://www.w3.org/1999/xlink" viewBox="0 0 220 53.17"><defs><style>.cls-1{fill:url(#linear-gradient);}</style><linearGradient id="linear-gradient" x1="46.27" y1="95.37" x2="166.4" y2="-24.76" gradientUnits="userSpaceOnUse"><stop offset="0" stop-color="gray"/><stop offset="0.23" stop-color="#838383"/><stop offset="0.42" stop-color="#8e8e8e"/><stop offset="0.6" stop-color="#9f9f9f"/><stop offset="0.77" stop-color="#b8b8b8"/><stop offset="0.94" stop-color="#d7d7d7"/><stop offset="1" stop-color="#e6e6e6"/></linearGradient></defs><path class="cls-1" d="M8,12H5.61V9.75H8ZM44.86,9.75H42.43V12h2.43ZM40.43,7.64H38.91c-.18-.06-.28-.26-.28-.55s.16-.59.45-.59.36.14.43.41l.88-.41a1.34,1.34,0,0,0-1.31-.92,1.49,1.49,0,0,0-1.46,1.57,1.6,1.6,0,0,0,.07.51h-.76v1h3.5Zm8.11,2.11H46.11V12h2.43Zm-8.46,0H37.34v9.4a3,3,0,0,0,3.31,3.23H53.39a3.23,3.23,0,0,0,2.7-1.2A3.89,3.89,0,0,0,57,18.58V9.75H54.22v8.07c0,1.27-.47,1.92-1.39,1.92H48.42a5.75,5.75,0,0,0,.33-2V13.49H46v4.37c0,1.25-.47,1.88-1.39,1.88H42.43c-2,0-2.35-.71-2.35-2Zm39.21,0H77v2.16h2.33Zm26.1,12.61H93.27V19.74h7.1c0-2.75-1.48-4-5-4V13.49a12.48,12.48,0,0,1,3.66.37,5.67,5.67,0,0,1,4.06,5.86H106v0h1.24c.92,0,1.39-.63,1.39-1.88V13.49h2.76v4.27a5.75,5.75,0,0,1-.34,2h4.86c.9,0,1.39-.47,1.39-1.88V14.43H120V17a8.26,8.26,0,0,1,6.22-3.58c3.51,0,5.39,2.68,5.39,7.11,0,.59,0,1.19-.1,1.8H105.39Zm15.3-2.62h8l0-.36c0-2-1-3.54-2.72-3.54C124,15.84,122.2,17.15,120.69,19.74Zm-59-10H59V22.36h2.74ZM181.93,25.66a12.82,12.82,0,1,0-11.13-6.44A12.85,12.85,0,0,0,181.93,25.66ZM111.12,9.75h-2.45V12h2.45ZM82.66,17.93a4.24,4.24,0,0,1,4.4-4.48A4.31,4.31,0,0,1,91.41,18v4q0,3.62-4.48,3.62h-.28V23.4h.18A2.06,2.06,0,0,0,89,21.58a2.1,2.1,0,0,1-1.94.9A4.35,4.35,0,0,1,82.66,17.93Zm2.74,0a1.8,1.8,0,0,0,1.7,2c1,0,1.57-.76,1.57-2s-.69-2-1.67-2S85.4,16.76,85.4,17.92ZM75.73,9.75H73.42v2.16h2.31ZM74.08,25.61a6.54,6.54,0,0,1-6.85-6.42V15.45h2.65V19a4.26,4.26,0,0,0,7.77,2.35,5.62,5.62,0,0,1-1.18.12,4,4,0,0,1-4.34-4.29,4,4,0,0,1,4.26-4.27c2.69,0,4.41,1.61,4.41,4.21v2.12A6.5,6.5,0,0,1,74.08,25.61Zm4.12-8.4c0-1.47-.55-2.21-1.67-2.21h-.19c-1,0-1.61.9-1.61,2.11s.65,2.18,1.74,2.18S78.2,18.42,78.2,17.21Zm91.66,12.11a12.05,12.05,0,0,1,.11-1.6.63.63,0,0,0-.63-.72h-3.27a.65.65,0,0,0-.63.57,16.8,16.8,0,0,0-.09,1.75,16.57,16.57,0,0,0,8.38,14.41.63.63,0,0,0,1-.55h0a7.15,7.15,0,0,1,.68-3.07.63.63,0,0,0-.21-.79A12.06,12.06,0,0,1,169.86,29.32ZM.5,19V13.49H3.26V18.7c0,2.58,1.31,4.36,3.45,4.36s3.42-1.84,3.42-4.36V13.49h2.74v6.25H17.2c.92,0,1.37-.63,1.37-1.88V13.49h2.76v4.27a6,6,0,0,1-.31,2h5.3c0-2.8,1.61-4.59,4.42-4.59s4.6,1.75,4.6,4.43A4.24,4.24,0,0,1,30.84,24a4.32,4.32,0,0,1-3.72-1.68H12a6,6,0,0,1-5.34,3.25A6.37,6.37,0,0,1,.5,19Zm28.5.61c0,1.33.67,2.25,1.84,2.25s1.78-.86,1.78-2.13c0-1.55-.58-2.33-1.74-2.33h-.19C29.69,17.35,29,18.27,29,19.56ZM129.41,45.85h2.75V33.22h-2.75Zm52.52-8.27a5.58,5.58,0,1,0,4.85,2.8A5.61,5.61,0,0,0,181.93,37.58Zm16.12-27.47a.62.62,0,0,0-.88.66,15.5,15.5,0,0,1,.13,2.06,15.18,15.18,0,0,1-1.68,7,.63.63,0,0,0,.25.83,27.76,27.76,0,0,1,13.4,28.56.62.62,0,0,0,.62.73h9.19a.63.63,0,0,0,.62-.55,37.63,37.63,0,0,0,.3-4.78A38.08,38.08,0,0,0,198.05,10.11ZM197.8,27h-3.28a.63.63,0,0,0-.62.72,12,12,0,0,1-5.18,11.59.63.63,0,0,0-.21.79,7.15,7.15,0,0,1,.68,3.07h0a.63.63,0,0,0,.95.55,16.57,16.57,0,0,0,8.38-14.41,14.43,14.43,0,0,0-.1-1.75A.63.63,0,0,0,197.8,27Zm-73.12,6.24h2.74v8.83a4,4,0,0,1-.86,2.59,3.28,3.28,0,0,1-2.7,1.19H86.7a4.73,4.73,0,0,1-3.31-1.15c-.6,2.64-3.38,4.4-6.58,4.4a6.75,6.75,0,0,1-7-6.68V40.08h2.74v2.09a4,4,0,0,0,4.32,4.38C79,46.55,81,45.22,81,43.4a1.76,1.76,0,0,0-1.82-1.72,2,2,0,0,0-.47.06V39.35a10.82,10.82,0,0,1,1.2,0A4.64,4.64,0,0,1,84.29,42a2.25,2.25,0,0,0,2.33,1.2h11.2a4.16,4.16,0,0,0-1.12-2.67,3.9,3.9,0,0,0-3-1.27,4.86,4.86,0,0,0-3.27,1.41l-1.37-1.86a6.43,6.43,0,0,1,4.84-2.07,7.16,7.16,0,0,1,3,.62c2.09,1,3.33,2.94,3.66,5.84h3.68c.9,0,1.39-.47,1.39-1.88V37.92h2.74v2.53a8.22,8.22,0,0,1,6.19-3.51c3.21,0,5.09,2.27,5.34,6.29h3.35c.92,0,1.39-.65,1.39-1.92Zm-7.58,9.63c0-2-1-3.54-2.72-3.54-2,0-3.82,1.31-5.32,3.9h8ZM168,20.65a.64.64,0,0,0,.25-.83,15.18,15.18,0,0,1-1.68-7,15.5,15.5,0,0,1,.13-2.06.63.63,0,0,0-.89-.66,38.08,38.08,0,0,0-21.94,34.5,37.63,37.63,0,0,0,.3,4.78.63.63,0,0,0,.62.55H154a.63.63,0,0,0,.62-.73A27.76,27.76,0,0,1,168,20.65ZM13.7,38.22a4.33,4.33,0,0,1,1.24,3.24,4.26,4.26,0,0,1-1.28,3.27,4.6,4.6,0,0,1-3.3,1.18A4.38,4.38,0,0,1,7.13,44.7a4.35,4.35,0,0,1-1.2-3.24,5.08,5.08,0,0,1,.31-1.82H5c-1.52,0-2.29,1-2.29,3V49.1H0V42.19a5.2,5.2,0,0,1,1.45-3.92A4.69,4.69,0,0,1,4.87,37h5.58A4.33,4.33,0,0,1,13.7,38.22Zm-1.46,3.17a2.42,2.42,0,0,0-.44-1.51,1.59,1.59,0,0,0-1.37-.67A1.61,1.61,0,0,0,9,39.92a2.64,2.64,0,0,0-.43,1.54A2.74,2.74,0,0,0,9,43a1.45,1.45,0,0,0,1.29.73h.19C11.65,43.7,12.24,42.93,12.24,41.39Zm8.81-15.78V23.34H18.63v2.27Zm-3.68-2.27H15v2.27h2.42ZM74,53.17h2.44V50.92H74Zm3.69,0h2.43V50.92H77.73Zm-16.2-7.32h2.74V33.22H61.53ZM56.79,33.24h2.74v8.83a3.93,3.93,0,0,1-.86,2.59A3.28,3.28,0,0,1,56,45.85H49.39a4.07,4.07,0,0,1-3-1.37,5.79,5.79,0,0,1-1.84,1,8.38,8.38,0,0,1-2.43.39H20.24a3,3,0,0,1-3.31-3.23v-9.4h2.74v8c0,1.33.34,2,2.35,2h20a4.72,4.72,0,0,0,2.54-.67,5.26,5.26,0,0,0-1.48-1.25,7.08,7.08,0,0,0-2.39-1V38.08a10.52,10.52,0,0,1,5.42-1.59,9.75,9.75,0,0,1,6,2.16,9,9,0,0,1-1.43,2.07,10.19,10.19,0,0,1-2.25,2,2.06,2.06,0,0,0,1.47.49H55.4c.92,0,1.39-.65,1.39-1.92Zm-8,6.13a5.39,5.39,0,0,0-2.46-.65,5.27,5.27,0,0,0-2.33.55,8.05,8.05,0,0,1,1.41.79,7.09,7.09,0,0,1,1.21,1.17,5.27,5.27,0,0,0,1.27-.9A4.27,4.27,0,0,0,48.8,39.37Z"/></svg>