<svg id="Layer_1_copy" data-name="Layer 1 copy" xmlns="http://www.w3.org/2000/svg" viewBox="0 0 260 252.42"><defs><style>.cls-1{fill:#999;}</style></defs><path class="cls-1" d="M17.14,135.65c-.32,3.56-2.41,5.5-6.13,5.47s-5.8-2.22-5.8-5.94c0-4.07,2.32-6.1,6.3-5.94S17,131.75,17.14,135.65Z"/><path class="cls-1" d="M32.69,163.19c-3.52-.3-5.51-2.34-5.49-6.08s2.11-5.86,5.88-5.87c4.05,0,6.12,2.26,6,6.25C38.94,161.32,36.62,163,32.69,163.19Z"/><path class="cls-1" d="M18.14,138.59c.42-3.57,2.54-5.47,6.26-5.34s5.74,2.34,5.65,6.07c-.1,4.09-2.52,6-6.45,5.77S18.24,142.37,18.14,138.59Z"/><path class="cls-1" d="M26.17,152.16c-.34,4-2.36,6.06-6.16,6-4.34-.12-5.59-3.5-5.68-6.84-.1-3.63,2.68-5.15,6.1-5.06C24.32,146.31,26,148.69,26.17,152.16Z"/><path class="cls-1" d="M71,151.9c-.18,3.79-2,6-5.82,6.09-3.52.06-5.67-1.81-5.88-5.36-.23-3.74,1.64-6.06,5.47-6.27S70.61,148.24,71,151.9Z"/><path class="cls-1" d="M78,150.29c3.7.29,5.92,2.11,5.92,5.9,0,3.5-2,5.59-5.44,5.75-3.71.17-6-1.78-6.12-5.55S74.38,150.72,78,150.29Z"/><path class="cls-1" d="M47.18,155.19c3.66.19,5.78,2.06,5.86,5.83s-1.86,5.93-5.63,6c-4,.12-6.19-2-6.17-6C41.26,157.28,43.42,155.43,47.18,155.19Z"/><path class="cls-1" d="M98,161.62c-.56,3.34-2.42,5.43-6,5.31-3.8-.14-5.81-2.39-5.62-6.14.19-3.51,2.35-5.46,5.88-5.37C96.09,155.51,97.82,157.86,98,161.62Z"/><path class="cls-1" d="M47,110.28c3.9.48,6.06,2.45,5.86,6.24C52.7,120,50.56,122,47,121.92c-3.79-.1-5.8-2.34-5.66-6.1C41.52,112.23,43.85,110.65,47,110.28Z"/><path class="cls-1" d="M59.65,172.14c-3.57-.37-5.52-2.46-5.4-6.22s2.39-5.75,6.14-5.63,5.75,2.38,5.63,6.14S63.58,172,59.65,172.14Z"/><path class="cls-1" d="M74.1,164.23c3.93.39,6,2.35,5.88,6.12s-2.29,5.74-6,5.65-5.73-2.27-5.66-6S70.68,164.48,74.1,164.23Z"/><path class="cls-1" d="M15.64,70.35c3.23.59,5.36,2.42,5.22,6-.14,3.74-2.39,5.81-6.1,5.58S9.1,79.25,9.44,75.55C9.76,72.07,12.08,70.46,15.64,70.35Z"/><path class="cls-1" d="M69.49,145c-3.59-.16-5.86-1.83-6.09-5.36-.25-3.75,1.71-6.06,5.5-6.24,3.51-.17,5.71,1.75,6,5.27C75.16,142.47,73.06,144.49,69.49,145Z"/><path class="cls-1" d="M30,94.23c-.4,3.64-2.31,5.84-6.12,5.69-3.52-.13-5.53-2.24-5.49-5.76,0-3.79,2.24-5.84,6-5.74C28,88.51,29.68,90.73,30,94.23Z"/><path class="cls-1" d="M20.39,102.25c3.86.55,5.84,2.66,5.55,6.43s-2.72,5.59-6.43,5.28-5.32-2.54-5.19-6C14.46,104,16.87,102.43,20.39,102.25Z"/><path class="cls-1" d="M93.07,174c-.37,4-2.3,6.15-6.12,6s-5.76-2.37-5.63-6.13c.13-3.56,2.23-5.45,5.75-5.5C90.94,168.3,92.7,170.57,93.07,174Z"/><path class="cls-1" d="M101.62,173.3c3.61.6,5.62,2.7,5.27,6.49-.32,3.61-2.72,5.25-6.15,5.11-3.59-.15-5.46-2.35-5.38-5.87C95.46,175.17,97.8,173.44,101.62,173.3Z"/><path class="cls-1" d="M39,112.3c-.4,3.67-2.34,5.81-6.12,5.65s-5.71-2.42-5.55-6.14c.16-3.52,2.28-5.43,5.78-5.43C36.94,106.38,38.75,108.6,39,112.3Z"/><path class="cls-1" d="M105.1,171c-3.59-.43-5.82-2.31-5.68-6.08.12-3.47,2.23-5.51,5.71-5.48,3.74,0,5.82,2.23,5.73,6C110.77,168.92,108.55,170.65,105.1,171Z"/><path class="cls-1" d="M21.09,121.24c-.27,3.74-2.19,5.86-6,5.81s-5.84-2.15-5.83-5.94,2.17-5.82,5.94-5.82S20.88,117.49,21.09,121.24Z"/><path class="cls-1" d="M43,99.23c-.6,3.77-2.58,5.93-6.33,5.65-3.46-.25-5.42-2.44-5.26-5.92.17-3.73,2.46-5.72,6.17-5.5C41.13,93.66,42.67,96,43,99.23Z"/><path class="cls-1" d="M66,121.21c-.43,3.59-2.31,5.82-6.08,5.68-3.48-.12-5.51-2.23-5.48-5.71,0-3.74,2.23-5.82,5.95-5.73C63.89,115.54,65.61,117.75,66,121.21Z"/><path class="cls-1" d="M29.1,120.24c3.72.24,5.88,2.1,5.89,5.9S32.93,132,29.17,132s-5.85-2.05-5.88-5.82S25.4,120.52,29.1,120.24Z"/><path class="cls-1" d="M48,130.25c-.34,3.72-2.28,5.85-6.1,5.74s-5.74-2.39-5.62-6.13c.12-3.57,2.23-5.48,5.75-5.5C45.9,124.32,47.77,126.5,48,130.25Z"/><path class="cls-1" d="M56,128.26c3.93.45,6.07,2.38,5.92,6.14s-2.42,5.72-6.13,5.54c-3.49-.17-5.42-2.26-5.43-5.76C50.34,130.35,52.66,128.66,56,128.26Z"/><path class="cls-1" d="M44.11,143c-.36,4-2.31,6.09-6.11,6s-5.8-2.24-5.73-6,2.24-5.77,6-5.74S43.83,139.67,44.11,143Z"/><path class="cls-1" d="M89,142.62c-.25,3.79-1.92,6.06-5.42,6.26-3.71.22-6-1.79-6.14-5.52s2-5.88,5.77-5.92C86.76,137.4,88.4,139.69,89,142.62Z"/><path class="cls-1" d="M57.06,148c-.17,3.76-2,6-5.79,6.05s-5.89-1.95-6-5.71,1.91-5.91,5.7-6S56.73,144.31,57.06,148Z"/><path class="cls-1" d="M37.12,48.49c3.31.56,5.65,2.39,5.55,5.86A5.22,5.22,0,0,1,37.2,59.7,5.28,5.28,0,0,1,31.6,54C31.67,50.8,33.92,49,37.12,48.49Z"/><path class="cls-1" d="M24.17,55.91c-3.36-.54-5.71-2.35-5.62-5.83a5.27,5.27,0,0,1,5.8-5.5A5.26,5.26,0,0,1,29.73,50C29.81,53.51,27.52,55.32,24.17,55.91Z"/><path class="cls-1" d="M132.81,143.24c-.61,3.3-2.47,5.63-5.94,5.46a5.54,5.54,0,0,1,.54-11.06C130.59,137.77,132.34,140,132.81,143.24Z"/><path class="cls-1" d="M181.15,210.9c-3.34-.57-5.69-2.38-5.59-5.84a5.58,5.58,0,0,1,11.16,0C186.78,208.51,184.48,210.32,181.15,210.9Z"/><path class="cls-1" d="M90.78,110.42c3.52.44,5.88,2.22,5.93,5.66a5.59,5.59,0,0,1-11.16.42C85.32,113,87.7,111.23,90.78,110.42Z"/><path class="cls-1" d="M172.07,192.85c-3.3-.62-5.63-2.48-5.46-5.95a5.21,5.21,0,0,1,5.55-5.26,5.27,5.27,0,0,1,5.51,5.8C177.54,190.62,175.28,192.37,172.07,192.85Z"/><path class="cls-1" d="M102,146.67c-.37,3.82-2.09,6.06-5.62,6.2s-5.73-1.87-5.91-5.34c-.2-3.74,1.93-6,5.69-6.06C99.74,141.4,101.35,143.77,102,146.67Z"/><path class="cls-1" d="M110.81,120.38c-.74,3.29-2.61,5.61-6.11,5.31A5.22,5.22,0,0,1,99.61,120c.2-3.39,2.49-5.6,6-5.33C108.73,114.9,110.45,117.17,110.81,120.38Z"/><path class="cls-1" d="M100.28,139.94c-3.4-.42-5.7-2.18-5.77-5.64a5.25,5.25,0,0,1,5.5-5.75c3.45-.09,5.64,2.06,5.75,5.49S103.6,139.34,100.28,139.94Z"/><path class="cls-1" d="M159.11,188.94c-3.5-.77-5.82-2.65-5.54-6.12s2.57-5.52,6-5.21a5.28,5.28,0,0,1,5.12,5.66C164.63,186.75,162.21,188.41,159.11,188.94Z"/><path class="cls-1" d="M51.34,109c-3.67-.49-5.91-2.25-5.89-5.79,0-3.76,2.25-5.91,6-5.75,3.48.15,5.48,2.35,5.4,5.86S54.41,108.52,51.34,109Z"/><path class="cls-1" d="M173.9,201.3c-.61,3.31-2.41,5.59-5.88,5.49s-5.58-2.31-5.49-5.74a5.25,5.25,0,0,1,5.73-5.5C171.7,195.63,173.47,197.93,173.9,201.3Z"/><path class="cls-1" d="M150.9,178c-.44,3.37-2.2,5.68-5.64,5.75a5.25,5.25,0,0,1-5.73-5.5c-.09-3.43,2.08-5.63,5.49-5.74S150.29,174.73,150.9,178Z"/><path class="cls-1" d="M69.94,107c-.4,3.46-2.15,5.74-5.69,5.8s-5.69-2-5.77-5.55,2.05-5.67,5.54-5.77S69.38,103.66,69.94,107Z"/><path class="cls-1" d="M137.94,174.33c-.57,3.36-2.37,5.62-5.93,5.5s-5.62-2.27-5.53-5.79,2.27-5.6,5.79-5.53S137.55,170.87,137.94,174.33Z"/><path class="cls-1" d="M79,124.67c-.33,3.78-2,6.07-5.56,6.19-3.74.13-6-2-6-5.78,0-3.49,2.15-5.54,5.65-5.61S78.34,121.72,79,124.67Z"/><path class="cls-1" d="M119.41,176c-3.51-.28-5.81-2-6-5.49-.16-3.74,2-6,5.73-6,3.5,0,5.58,2.11,5.66,5.61S122.72,175.43,119.41,176Z"/><path class="cls-1" d="M154,202c-3.36-.56-5.62-2.36-5.52-5.92s2.27-5.62,5.79-5.54,5.6,2.26,5.54,5.78S157.45,201.57,154,202Z"/><path class="cls-1" d="M128.9,156c-.43,3.37-2.19,5.67-5.64,5.75a5.26,5.26,0,0,1-5.73-5.49c-.1-3.44,2.08-5.64,5.48-5.75S128.29,152.73,128.9,156Z"/><path class="cls-1" d="M119.87,138.19c-.6,3.34-2.42,5.68-5.88,5.56a5.59,5.59,0,0,1,.05-11.17C117.51,132.55,119.31,134.85,119.87,138.19Z"/><path class="cls-1" d="M155.84,165c-.57,3.45-2.39,5.79-5.86,5.7a5.22,5.22,0,0,1-5.37-5.45,5.27,5.27,0,0,1,5.69-5.62C153.52,159.67,155.2,162,155.84,165Z"/><path class="cls-1" d="M84,112.08c-.64,3.55-2.44,5.83-5.93,5.72s-5.59-2.3-5.51-5.75a5.27,5.27,0,0,1,5.75-5.51C81.77,106.59,83.4,109,84,112.08Z"/><path class="cls-1" d="M136.2,154.44c3.33.63,5.67,2.46,5.51,5.92a5.58,5.58,0,0,1-11.16-.14C130.55,156.76,132.86,155,136.2,154.44Z"/><path class="cls-1" d="M92.94,130.33c-.58,3.36-2.37,5.62-5.93,5.5s-5.62-2.28-5.53-5.79,2.27-5.6,5.79-5.53S92.55,126.86,92.94,130.33Z"/><path class="cls-1" d="M24.94,63c-.4,3.46-2.15,5.74-5.69,5.8s-5.69-2-5.77-5.55,2-5.67,5.54-5.77S24.38,59.66,24.94,63Z"/><path class="cls-1" d="M51.88,72c-.41,3.38-2.19,5.74-5.65,5.79s-5.65-2.18-5.69-5.62a5.26,5.26,0,0,1,5.26-5.56C49.3,66.36,51.16,68.64,51.88,72Z"/><path class="cls-1" d="M22.28,81.45c.45-3.69,2.2-6,5.73-6,3.76,0,5.93,2.19,5.81,5.94-.12,3.48-2.29,5.49-5.81,5.45S22.83,84.49,22.28,81.45Z"/><path class="cls-1" d="M47.94,85.33c-.57,3.36-2.37,5.62-5.93,5.5S36.39,88.56,36.48,85s2.27-5.6,5.79-5.53S47.55,81.87,47.94,85.33Z"/><path class="cls-1" d="M60.91,90.31c-.61,3.32-2.41,5.6-5.9,5.49s-5.59-2.31-5.5-5.76a5.27,5.27,0,0,1,5.76-5.5C58.73,84.62,60.49,86.92,60.91,90.31Z"/><path class="cls-1" d="M87.81,98.42c-.77,3.28-2.65,5.59-6.15,5.26a5.21,5.21,0,0,1-5-5.74c.23-3.38,2.53-5.59,6-5.28C85.77,92.93,87.48,95.21,87.81,98.42Z"/><path class="cls-1" d="M27.37,67c.6-3.32,2.4-5.6,5.89-5.49s5.59,2.3,5.5,5.76A5.26,5.26,0,0,1,33,72.8C29.54,72.72,27.79,70.42,27.37,67Z"/><path class="cls-1" d="M65.81,76.42C65,79.7,63.16,82,59.66,81.68a5.21,5.21,0,0,1-5-5.74c.23-3.38,2.53-5.59,6-5.28C63.77,70.93,65.48,73.21,65.81,76.42Z"/><path class="cls-1" d="M114.94,152.33c-.58,3.36-2.37,5.62-5.93,5.5s-5.62-2.28-5.53-5.79,2.27-5.6,5.79-5.53S114.55,148.86,114.94,152.33Z"/><path class="cls-1" d="M74.9,94.16c-.74,3.5-2.61,5.83-6.07,5.58s-5.54-2.54-5.26-6a5.28,5.28,0,0,1,5.63-5.16C72.69,88.65,74.35,91.06,74.9,94.16Z"/><path class="cls-1" d="M222.78,231.32c-.68,3.3-2.56,5.59-6,5.35a5.51,5.51,0,0,1,.76-11C220.66,225.88,222.39,228.13,222.78,231.32Z"/><path class="cls-1" d="M194.92,214.81c-3.3-.74-5.58-2.63-5.27-6.1a5.19,5.19,0,0,1,5.71-5c3.36.22,5.55,2.5,5.26,6C200.36,212.78,198.1,214.48,194.92,214.81Z"/><path class="cls-1" d="M141.33,186.35c3.36.52,5.55,2.31,5.51,5.88,0,3.26-2,5.84-5.16,5.41-2.84-.39-6.52-1.4-6.26-5.7C135.64,188.39,137.83,186.67,141.33,186.35Z"/><path class="cls-1" d="M209.86,227.22c-.57,2.9-2,5.68-5,5.13-2.6-.48-6.31-1.45-6.25-5.32A5.25,5.25,0,0,1,204,221.6C207.5,221.53,209.31,223.88,209.86,227.22Z"/><path class="cls-1" d="M89.08,187.77c-.65,4.21-4.59,4.47-7.45,4.77a4.25,4.25,0,0,1-4.37-4.84c.3-3.53,2.31-5.37,5.82-5.41S88.56,184.12,89.08,187.77Z"/><path class="cls-1" d="M128.09,181.35c3.33.27,5.53,2,5.76,5.46.16,2.42-.69,5.51-3.45,4.73-2.93-.83-7.45-1.22-7.76-5.46C122.43,183.2,125,181.63,128.09,181.35Z"/><path class="cls-1" d="M57.07,181.94c-2.58-.42-6.53,1-6.73-3.55-.16-3.62,2.53-5.2,5.95-5.16,3.83,0,5.67,2.24,5.82,6C62.28,183.39,59.14,181.55,57.07,181.94Z"/><path class="cls-1" d="M185.94,185.64c3.2.31,5.45,2,5.61,5.21a5.42,5.42,0,1,1-10.84.4C180.66,188,182.78,186.2,185.94,185.64Z"/><path class="cls-1" d="M87,79.82c3.29.28,5.36,2,5.39,5.35a4.85,4.85,0,0,1-4.9,5.26c-3.31.2-5.48-1.7-5.64-5S83.71,80.23,87,79.82Z"/><path class="cls-1" d="M198.93,190.86c3.28.21,5.39,1.88,5.44,5.22s-1.94,5.31-5.26,5.33a4.81,4.81,0,0,1-5.21-4.9C193.73,193.21,195.61,191.3,198.93,190.86Z"/><path class="cls-1" d="M141,141.64c3.2.33,5.45,2.07,5.58,5.24a5.42,5.42,0,1,1-10.84.33C135.68,144,137.81,142.19,141,141.64Z"/><path class="cls-1" d="M208.24,208.64c3.18.51,5.36,2.32,5.32,5.52a5.43,5.43,0,1,1-10.85-.22C202.87,210.75,205.06,209,208.24,208.64Z"/><path class="cls-1" d="M222,212.86c3.28.26,5.33,2,5.36,5.31a4.82,4.82,0,0,1-4.87,5.23c-3.3.19-5.45-1.67-5.6-5S218.71,213.25,222,212.86Z"/><path class="cls-1" d="M236.67,236.1c-.39,3.18-2.15,5.41-5.34,5.49a5.43,5.43,0,1,1-.15-10.85C234.39,230.77,236.18,232.92,236.67,236.1Z"/><path class="cls-1" d="M69.5,63.1c-.41,3.48-2.27,5.47-5.59,5.33s-5.22-2.3-5-5.61a4.86,4.86,0,0,1,5.25-4.92C67.47,57.91,69.16,60,69.5,63.1Z"/><path class="cls-1" d="M249.44,240c-.21,3.28-1.88,5.39-5.22,5.43s-5.3-2-5.32-5.27a4.8,4.8,0,0,1,4.91-5.19C247.1,234.77,249,236.65,249.44,240Z"/><path class="cls-1" d="M137.45,129.05c-.26,3.29-2,5.33-5.31,5.36a4.81,4.81,0,0,1-5.23-4.87c-.19-3.3,1.67-5.45,5-5.6S137.06,125.74,137.45,129.05Z"/><path class="cls-1" d="M96.27,97.64c3.17.52,5.35,2.34,5.29,5.54-.07,3.43-2.36,5.62-5.8,5.4a5.12,5.12,0,0,1-5.05-5.67C90.88,99.73,93.08,98,96.27,97.64Z"/><path class="cls-1" d="M109.18,112.52c-3.3-.32-5.36-2.09-5.31-5.43s2.15-5.27,5.47-5.19a4.86,4.86,0,0,1,5.07,5.1C114.48,110.33,112.49,112.15,109.18,112.52Z"/><path class="cls-1" d="M73.16,85.71c-3.19-.44-5.4-2.22-5.44-5.41a5.43,5.43,0,1,1,10.85,0C78.5,83.49,76.31,85.23,73.16,85.71Z"/><path class="cls-1" d="M51.07,52.63c3.26.46,5.47,2.24,5.49,5.43a5.15,5.15,0,0,1-5.68,5.53A5.12,5.12,0,0,1,45.71,58C45.79,54.83,48,53.09,51.07,52.63Z"/><path class="cls-1" d="M154.32,145.86c3.31.42,5.23,2.32,5.05,5.62s-2.36,5.14-5.66,4.91a4.81,4.81,0,0,1-4.81-5.28C149,147.77,151,146.08,154.32,145.86Z"/><path class="cls-1" d="M118.27,119.64c3.17.52,5.35,2.34,5.29,5.54-.07,3.43-2.36,5.62-5.8,5.4a5.12,5.12,0,0,1-5.05-5.67C112.88,121.73,115.08,120,118.27,119.64Z"/><path class="cls-1" d="M163.06,163.64c3.19.39,5.42,2.15,5.5,5.33a5.43,5.43,0,1,1-10.85.15C157.74,165.92,159.89,164.13,163.06,163.64Z"/><path class="cls-1" d="M47.48,40.15c-.33,3.3-2.12,5.35-5.45,5.29s-5.26-2.18-5.16-5.5a4.85,4.85,0,0,1,5.12-5C45.32,34.85,47.13,36.85,47.48,40.15Z"/><path class="cls-1" d="M28.21,30.61c3.18.5,5.39,2.3,5.37,5.51a5.16,5.16,0,0,1-5.76,5.49A5.15,5.15,0,0,1,22.68,36C22.81,32.78,25,31,28.21,30.61Z"/><path class="cls-1" d="M182.45,174.17c-.33,3.3-2.12,5.31-5.44,5.23s-5.22-2.17-5.11-5.48a4.81,4.81,0,0,1,5.11-5C180.34,168.89,182.12,170.87,182.45,174.17Z"/><path class="cls-1" d="M69.39,177.21c3.46.21,5.56,2.06,5.66,5.84,0,2-.67,5.07-2.61,4.4-3.29-1.16-7.09-3.27-8.68-6.1C62.65,179.36,66.21,177.3,69.39,177.21Z"/><path class="cls-1" d="M8.49,89.23c-.21-3-.11-5.19,3.16-4.83,3.55.38,5.34,2.49,5.28,6-.06,3.07-1.79,5.46-4.76,5.37C7.38,95.63,9.69,91,8.49,89.23Z"/><path class="cls-1" d="M173.24,156c-.09,3.12-1.56,5.12-4.77,5.26-3.38.14-5.38-1.64-5.38-5.09,0-3.17,1.79-5,5-5S173,152.8,173.24,156Z"/><path class="cls-1" d="M77.24,72.27c-3.13-.13-5-1.68-5.16-4.87s1.51-5.13,4.71-5.28c3.38-.16,5.38,1.62,5.4,5.07C82.21,70.37,80.39,72,77.24,72.27Z"/><path class="cls-1" d="M123.09,106.05c3.35.28,5.14,2,5.1,5.15,0,3.46-2.08,5.2-5.45,5-3.19-.17-4.78-2.19-4.66-5.31S120.18,106.21,123.09,106.05Z"/><path class="cls-1" d="M49.61,9.28c3.45.1,5.32,1.58,5.36,4.81S53.29,19,50.1,19c-2.93,0-4.64-1.56-4.79-4.5C45.13,11.32,46.81,9.64,49.61,9.28Z"/><path class="cls-1" d="M153.92,112c-3-.34-4.74-2-4.54-5.21.19-2.92,2-4.48,4.89-4.38,3.2.1,4.8,2,4.62,5.14C158.73,110.49,156.88,111.87,153.92,112Z"/><path class="cls-1" d="M69,18c-.12,2.94-1.48,4.81-4.45,5-3.13.18-5.08-1.4-5.16-4.62s1.67-4.94,4.86-4.93C67.19,13.41,68.69,15.13,69,18Z"/><path class="cls-1" d="M164.13,138c-.07,3.15-1.56,5.05-4.8,5.14s-5.05-1.53-5.14-4.76,1.53-5,4.76-5.14S163.87,134.78,164.13,138Z"/><path class="cls-1" d="M104.16,81.13c-3.37-.28-5-2-4.92-5.15s2-4.79,5.09-4.7,4.78,1.94,4.7,5.08S107,81,104.16,81.13Z"/><path class="cls-1" d="M149.33,115.25c3.2.26,4.83,2,4.68,5.22s-2.15,4.75-5.29,4.57c-3-.18-4.5-2-4.46-4.92C144.3,116.86,146.14,115.34,149.33,115.25Z"/><path class="cls-1" d="M46.35,32.21C43,32,41.18,30.44,41.16,27.27c0-3.43,1.87-5.19,5.25-5.07,3.18.11,4.77,2,4.71,5.12S49.19,32,46.35,32.21Z"/><path class="cls-1" d="M218.21,200.21c-.19,3.14-1.81,5-5,5-3.44,0-5.24-1.91-5.11-5.3.12-3.19,2-4.82,5.18-4.75S218.06,197.07,218.21,200.21Z"/><path class="cls-1" d="M64.08,31.07c-.12,3.13-1.65,5-4.85,5s-4.94-1.61-5-4.8,1.61-4.93,4.79-5S63.86,27.93,64.08,31.07Z"/><path class="cls-1" d="M184.65,142.29c3.28.11,5.14,1.49,5.3,4.5.16,3.18-1.4,5.12-4.68,5.19s-5-1.69-5-4.93C180.33,144,182.13,142.6,184.65,142.29Z"/><path class="cls-1" d="M145,102.32c-.26,3.15-2,4.82-5.2,4.66-3-.15-4.55-1.92-4.49-4.89.07-3.27,2-4.87,5.14-4.73C143.47,97.49,144.89,99.31,145,102.32Z"/><path class="cls-1" d="M150.25,133.91c-.12,3.25-1.65,5.18-4.85,5.31s-5.14-1.47-5.31-4.66c-.17-3.37,1.57-5.4,5-5.44C148.31,129.08,150,130.9,150.25,133.91Z"/><path class="cls-1" d="M73.29,31.29c3.15.26,4.81,2,4.67,5.14S75.87,41.16,72.75,41c-2.94-.16-4.47-1.91-4.45-4.83C68.32,32.93,70.14,31.41,73.29,31.29Z"/><path class="cls-1" d="M204,151.17c-.4,3.3-2.13,5-5.28,4.75-2.93-.21-4.46-2-4.34-4.92.13-3.21,2.05-4.77,5.18-4.59C202.54,146.59,203.79,148.54,204,151.17Z"/><path class="cls-1" d="M91,40.07c-.16,2.92-1.57,4.74-4.53,4.87-3.15.14-5-1.49-5.08-4.7s1.76-4.9,4.94-4.84C89.28,35.45,90.74,37.21,91,40.07Z"/><path class="cls-1" d="M231.13,205.38c-.27,3.19-2,4.85-5.2,4.74s-4.84-2-4.74-5.15,2-4.84,5.15-4.75S231.07,202.23,231.13,205.38Z"/><path class="cls-1" d="M245.07,209c-.26,3.46-2,5.15-5.17,5s-4.78-2.07-4.62-5.22c.15-3,1.9-4.5,4.84-4.51C243.39,204.29,244.86,206.17,245.07,209Z"/><path class="cls-1" d="M96.13,71.38c-.27,3.19-2,4.85-5.2,4.74s-4.84-2-4.74-5.15,2-4.84,5.15-4.75S96.07,68.23,96.13,71.38Z"/><path class="cls-1" d="M114,62.37c-.33,3.05-2,4.75-5.19,4.56-2.92-.18-4.49-2-4.4-4.87.09-3.2,2-4.81,5.12-4.65C112.44,57.57,113.83,59.41,114,62.37Z"/><path class="cls-1" d="M117.93,85c-3.15-.28-4.79-2.05-4.6-5.25.17-3,2-4.52,4.94-4.43,3.28.09,4.84,2,4.68,5.19C122.79,83.56,120.93,84.94,117.93,85Z"/><path class="cls-1" d="M253.27,218c-3-.13-4.79-1.52-4.93-4.52-.15-3.17,1.45-5.08,4.7-5.13s4.94,1.73,4.9,4.94C257.89,216.32,256.15,217.8,253.27,218Z"/><path class="cls-1" d="M127.47,93.25c3.19.32,4.74,2.17,4.53,5.33s-2.27,4.69-5.4,4.45-4.42-2.1-4.34-5C122.36,94.73,124.28,93.29,127.47,93.25Z"/><path class="cls-1" d="M186.14,160.07c-.13,3.16-1.68,5-4.91,5.05s-5-1.64-5-4.85,1.64-5,4.85-5.05S185.92,156.89,186.14,160.07Z"/><path class="cls-1" d="M240.21,221.94c-.07,3.11-1.52,5.1-4.72,5.25-3.38.15-5.36-1.59-5.38-5,0-3.16,1.76-5,4.92-5S239.92,218.79,240.21,221.94Z"/><path class="cls-1" d="M131.42,90c-3-.09-4.84-1.42-5-4.39-.21-3.13,1.34-5.1,4.56-5.22s5,1.61,5,4.81C135.93,88.17,134.23,89.69,131.42,90Z"/><path class="cls-1" d="M60.24,45.07c-.13,3.13-1.68,5-4.87,5.15s-5.13-1.5-5.28-4.7c-.16-3.38,1.61-5.38,5.07-5.4C58.34,40.1,60,41.92,60.24,45.07Z"/><path class="cls-1" d="M254.13,227c-.19,3.39-1.8,5.17-5,5.15s-4.92-1.76-4.91-4.95,1.76-4.91,4.94-4.91S253.91,224.07,254.13,227Z"/><path class="cls-1" d="M200.08,165.16c-.3,3.44-2.09,5.05-5.27,4.88s-4.74-2.18-4.54-5.32,2-4.47,4.95-4.43C198.5,160.33,199.94,162.25,200.08,165.16Z"/><path class="cls-1" d="M113.05,99.19c-3.13-.19-4.9-1.82-4.89-5,0-3.44,2-5.15,5.31-5,3.18.13,4.74,2.07,4.65,5.18S116.16,99.07,113.05,99.19Z"/><path class="cls-1" d="M163.3,120.3c3.15.26,4.82,2,4.65,5.21-.16,3-1.94,4.54-4.91,4.47-3.27-.07-4.86-2-4.71-5.15C158.47,121.81,160.3,120.41,163.3,120.3Z"/><path class="cls-1" d="M230.35,196c-3.19-.11-5-1.64-5-4.91,0-3,1.62-4.69,4.61-4.77,3.22-.09,5,1.6,5,4.85C235,194.21,233.29,195.76,230.35,196Z"/><path class="cls-1" d="M176,124.34c2.9.16,4.72,1.57,4.86,4.51.14,3.15-1.5,5-4.69,5.08s-4.89-1.77-4.83-4.94C171.43,126,173.2,124.59,176,124.34Z"/><path class="cls-1" d="M208.14,174c-3.17-.19-4.91-1.84-4.82-5.08.09-3,1.8-4.6,4.78-4.6,3.25,0,4.93,1.8,4.85,5C212.88,172.39,211.11,173.85,208.14,174Z"/><path class="cls-1" d="M37.27,23.22c-.25,3.37-2.09,5.17-5.43,5-3.12-.13-4.83-2-4.79-5.13.06-3.4,2.05-5.15,5.38-5C35.57,18.21,37.11,20.13,37.27,23.22Z"/><path class="cls-1" d="M100.15,94.27c-3.14-.18-5-1.77-5.07-5,0-3.43,1.88-5.29,5.29-5.19,3.18.09,4.88,2,4.82,5.16S103.3,94.09,100.15,94.27Z"/><path class="cls-1" d="M220.9,168.34c2.94.12,4.81,1.47,5,4.42.19,3.12-1.38,5.07-4.59,5.16s-4.93-1.64-4.93-4.83C216.38,170.14,218.1,168.65,220.9,168.34Z"/><path class="cls-1" d="M171.87,147.09c-3.19-.29-4.79-2.11-4.6-5.28s2.21-4.72,5.35-4.5,4.46,2,4.39,5C177,145.55,175.06,147,171.87,147.09Z"/><path class="cls-1" d="M77.18,54.33c.24-3.41,1.89-5.11,5.06-5s4.84,1.84,4.79,5-1.84,4.83-5,4.8S77.36,57.15,77.18,54.33Z"/><path class="cls-1" d="M136.34,111.17c3.2.27,4.86,2,4.75,5.2s-2,4.85-5.16,4.75-4.84-2-4.74-5.15S133.2,111.24,136.34,111.17Z"/><path class="cls-1" d="M190.3,173.07c3.16.27,4.94,2,4.89,5.14-.05,3.46-2.09,5.19-5.46,5-3.2-.18-4.79-2.2-4.65-5.33S187.17,173.17,190.3,173.07Z"/><path class="cls-1" d="M94.85,53.27c3.45.21,5.19,1.83,5.12,5S98,63.1,94.89,63c-3-.1-4.53-1.78-4.59-4.71C90.24,55.06,92,53.53,94.85,53.27Z"/><path class="cls-1" d="M204.24,177.19c3.17.23,4.89,1.9,4.83,5.08s-1.86,4.88-5,4.83-4.87-1.86-4.82-5S201.1,177.31,204.24,177.19Z"/><path class="cls-1" d="M67.74,54.19C64.58,53.83,63,52,63.16,48.9s2-4.8,5.13-4.7c3.45.1,5,2.15,4.8,5.49S70.8,54.19,67.74,54.19Z"/><path class="cls-1" d="M217.13,182.22c3.44.31,5.05,2.1,4.88,5.28s-2.18,4.74-5.33,4.53c-3-.19-4.46-2-4.42-4.94C212.3,183.8,214.22,182.37,217.13,182.22Z"/><path class="cls-1" d="M43.35,169.15c3.79.32,5.71,2.37,5.78,6.13,0,2.36-1.77,5.61-3,4.69a21.28,21.28,0,0,1-6.38-8.78C38.93,169.21,41.87,169.46,43.35,169.15Z"/><path class="cls-1" d="M17.92,26.73C19.19,29,20.64,30.47,20.67,32c.07,3.45-2.13,5.79-5.52,5.69-1.53,0-3-2.06-4.48-3.18Z"/><path class="cls-1" d="M185.93,114.78c-.34,3.08-1.79,5-4.67,5a4.65,4.65,0,1,1-.24-9.3C184,110.39,185.32,112.38,185.93,114.78Z"/><path class="cls-1" d="M207.91,138c-.3,2.86-1.74,4.74-4.65,4.81a4.66,4.66,0,0,1-.25-9.32C205.94,133.4,207.44,135.25,207.91,138Z"/><path class="cls-1" d="M145.41,84.37c2.76.42,4.54,1.93,4.44,4.88-.11,3.18-2,4.86-5.16,4.62-2.9-.23-4.45-2.13-4.27-5S142.47,84.53,145.41,84.37Z"/><path class="cls-1" d="M77.62,27c-3.21-.23-5.09-1.64-5.19-4.57-.11-3.16,1.64-5,4.82-5,2.91,0,4.57,1.78,4.61,4.7S80,26.5,77.62,27Z"/><path class="cls-1" d="M91,22.36c3,.51,4.86,2,4.76,4.94A4.67,4.67,0,0,1,86.47,27C86.53,24.09,88.52,22.79,91,22.36Z"/><path class="cls-1" d="M190.45,128.38c2.72.46,4.51,2,4.39,4.9-.13,3.15-2.06,4.84-5.18,4.57-2.87-.25-4.44-2.15-4.22-5S187.52,128.53,190.45,128.38Z"/><path class="cls-1" d="M104.94,44.49c-.45,2.74-2,4.51-4.91,4.39-3.18-.13-4.85-2.06-4.58-5.19.25-2.89,2.15-4.44,5-4.23S104.8,41.54,104.94,44.49Z"/><path class="cls-1" d="M136.28,75.94c-2.86-.3-4.73-1.74-4.8-4.65a4.66,4.66,0,0,1,9.32-.24C140.9,74,139.06,75.47,136.28,75.94Z"/><path class="cls-1" d="M230.9,160.3c-.48,2.76-2,4.62-4.88,4.52a4.65,4.65,0,1,1,.24-9.3C229.14,155.59,230.58,157.48,230.9,160.3Z"/><path class="cls-1" d="M158,88.36c3,.51,4.86,2,4.76,4.94a4.67,4.67,0,0,1-9.33-.26C153.53,90.09,155.52,88.79,158,88.36Z"/><path class="cls-1" d="M126.94,67.41c-.41,2.77-1.91,4.56-4.86,4.47-3.17-.09-4.87-2-4.64-5.13.21-2.9,2.09-4.46,5-4.29S126.76,64.48,126.94,67.41Z"/><path class="cls-1" d="M172,111c-.39,3.1-1.87,4.91-4.82,4.87-3.18,0-4.91-1.91-4.73-5,.17-2.9,2-4.48,4.93-4.38S171.63,108.48,172,111Z"/><path class="cls-1" d="M244.42,190.35c2.83.36,4.56,1.91,4.47,4.9-.1,3.25-2,4.89-5.21,4.65-3-.22-4.47-2.12-4.29-5.06S241.43,190.47,244.42,190.35Z"/><path class="cls-1" d="M240,177.73c-.26,3.18-1.68,5.05-4.59,5.14-3.14.1-5-1.69-4.93-4.84.05-2.89,1.81-4.54,4.71-4.57S239.46,175.34,240,177.73Z"/><path class="cls-1" d="M252.9,182.3c-.48,2.76-2,4.62-4.88,4.52a4.65,4.65,0,1,1,.24-9.3C251.14,177.59,252.58,179.48,252.9,182.3Z"/><path class="cls-1" d="M212,160c-2.79-.38-4.61-1.85-4.57-4.77,0-3.16,1.91-4.91,5-4.72,2.87.17,4.49,2,4.36,4.91S214.89,159.73,212,160Z"/><path class="cls-1" d="M117.91,49c-.3,2.85-1.74,4.73-4.65,4.8a4.31,4.31,0,0,1-4.78-4.54A4.32,4.32,0,0,1,113,44.51C115.94,44.41,117.44,46.25,117.91,49Z"/><path class="cls-1" d="M195.9,222.89c-.32,1.57-.32,4.1-2.47,3.27-3-1.14-6.24-2.85-8-5.31-1-1.37,2.24-3.29,4.46-3.32C193.38,217.48,195.21,219.63,195.9,222.89Z"/><path class="cls-1" d="M176.85,98.46c-.68,2.68-2.23,4.62-5.19,4.28a4.31,4.31,0,0,1-4.11-4.8c.23-2.83,2.13-4.65,5.06-4.34C175.21,93.87,176.62,95.74,176.85,98.46Z"/><path class="cls-1" d="M239.17,168.9c-2.77-.47-4.72-2-4.63-4.9a4.6,4.6,0,0,1,9.19.34C243.67,167,241.81,168.43,239.17,168.9Z"/><path class="cls-1" d="M131.86,53.2c-.51,2.76-2,4.71-5,4.56a4.32,4.32,0,0,1-4.36-4.58,4.36,4.36,0,0,1,4.83-4.6C130,48.68,131.44,50.54,131.86,53.2Z"/><path class="cls-1" d="M221.85,142.4c-.64,2.69-2.18,4.65-5.13,4.35a4.3,4.3,0,0,1-4.17-4.75c.19-2.85,2.09-4.67,5-4.41C220.16,137.82,221.58,139.69,221.85,142.4Z"/><path class="cls-1" d="M198.86,120.36c-.62,2.71-2.16,4.66-5.11,4.4a4.61,4.61,0,0,1,.77-9.18C197.13,115.79,198.56,117.66,198.86,120.36Z"/><path class="cls-1" d="M260.81,200.11c.31,2.95-.61,4.84-3.67,4.78s-4.65-1.7-4.72-4.62,1.6-4.68,4.52-4.81C260.27,195.3,261.22,197.35,260.81,200.11Z"/><path class="cls-1" d="M153.85,75.4c-.64,2.69-2.18,4.65-5.13,4.35A4.3,4.3,0,0,1,144.55,75c.19-2.85,2.09-4.67,5-4.41C152.16,70.82,153.58,72.69,153.85,75.4Z"/><path class="cls-1" d="M114.42,177.35c3,.22,5.24,1.87,5.41,5.46a3.6,3.6,0,0,1-1.56,2.21,43.63,43.63,0,0,1-9.18-4.55C108.68,180.18,111.57,177.43,114.42,177.35Z"/><path class="cls-1" d="M189.78,102.07c-.38,2.59-1.82,4.45-4.41,4.62a4.52,4.52,0,1,1-.22-9C187.78,97.6,189.23,99.52,189.78,102.07Z"/><path class="cls-1" d="M220.93,124.81c2.67.19,4.45,1.57,4.5,4.27a4.3,4.3,0,0,1-8.59.42C216.67,126.81,218.26,125.24,220.93,124.81Z"/><path class="cls-1" d="M140.25,62.81c-2.59-.36-4.45-1.8-4.63-4.39a4.52,4.52,0,1,1,9-.26C144.72,60.8,142.8,62.25,140.25,62.81Z"/><path class="cls-1" d="M153.06,57.7c2.82.47,4.58,2,4.43,4.68a4.36,4.36,0,0,1-8.72-.18C148.79,59.47,150.61,58.1,153.06,57.7Z"/><path class="cls-1" d="M257.78,169.15c-.61,2.7-2.06,4.6-4.68,4.5a4.49,4.49,0,1,1,.32-9C256,164.87,257.34,166.8,257.78,169.15Z"/><path class="cls-1" d="M163.36,84.84c-2.76-.45-4.67-1.9-4.73-4.49a4.52,4.52,0,1,1,9-.11C167.64,82.9,165.67,84.23,163.36,84.84Z"/><path class="cls-1" d="M203.53,106.12c-.43,2.88-2,4.52-4.66,4.34a4.3,4.3,0,0,1,.3-8.59C201.9,101.91,203.23,103.69,203.53,106.12Z"/><path class="cls-1" d="M176.16,79.78c2.87.47,4.48,2,4.26,4.73a4.3,4.3,0,0,1-8.58-.44C171.92,81.35,173.72,80,176.16,79.78Z"/><path class="cls-1" d="M212.77,124c-.44,2.72-1.89,4.61-4.47,4.67a4.49,4.49,0,1,1-.08-9C210.85,119.72,212.2,121.64,212.77,124Z"/><path class="cls-1" d="M234.74,146.18c-.45,2.56-1.9,4.45-4.49,4.47a4.49,4.49,0,1,1,0-9C232.86,141.78,234.3,143.61,234.74,146.18Z"/><path class="cls-1" d="M248.5,151.26c-.37,2.68-1.88,4.34-4.58,4.2a4,4,0,0,1-4.07-4.63,4,4,0,0,1,4.26-4C246.82,146.89,248.25,148.59,248.5,151.26Z"/><path class="cls-1" d="M5.38,58.65c.51-1.7-1.13-4.95,2.29-4.83,2.67.09,4.19,2.47,4.2,5.31s-1.48,5.43-4.11,5.27C4.8,64.22,5.56,61,5.38,58.65Z"/><path class="cls-1" d="M212.13,115.23c-2.6-.15-4-1.49-4-4.08s1.45-4,4-4,4,1.46,4,4S214.66,115.08,212.13,115.23Z"/><path class="cls-1" d="M167.15,62.11c2.59.15,4,1.49,4,4.08s-1.45,4-4,4-4-1.46-4-4S164.61,62.26,167.15,62.11Z"/><path class="cls-1" d="M248.37,141.09c-2.85-.11-4.19-1.47-4.12-4.06s1.6-3.85,4.15-3.75c2.36.1,3.59,1.44,3.63,3.79C252.07,139.68,250.69,141,248.37,141.09Z"/><path class="cls-1" d="M260.83,155c.25,2.62-.9,4.14-3.56,4.21s-4.06-1.25-4.15-3.83,1.19-4.1,3.78-4.2S261,152.22,260.83,155Z"/><path class="cls-1" d="M193.18,89.33c-.2,2.6-1.64,3.93-4.2,3.86s-3.93-1.62-3.86-4.18,1.61-3.93,4.17-3.85S193.13,86.78,193.18,89.33Z"/><path class="cls-1" d="M180.32,75.1c-2.57,0-4.07-1.22-4.09-3.87s1.35-4,4-4c2.35,0,3.73,1.22,3.85,3.6C184.17,73.41,183,74.92,180.32,75.1Z"/><path class="cls-1" d="M203.33,97.09c-2.57,0-4.06-1.23-4.08-3.86s1.35-4,3.95-4c2.34,0,3.7,1.22,3.83,3.58C207.16,95.42,205.93,96.88,203.33,97.09Z"/><path class="cls-1" d="M225.33,119.09c-2.57,0-4.06-1.22-4.08-3.86s1.35-4,3.95-4c2.34,0,3.7,1.22,3.82,3.58C229.16,117.41,227.93,118.88,225.33,119.09Z"/><path class="cls-1" d="M239.15,133.07c-.07,2.55-1.32,4-3.92,4.09s-4-1.3-4.08-3.89,1.3-4,3.89-4.08S239,130.49,239.15,133.07Z"/><path class="cls-1" d="M42.05,9.44c-.21,2.67-1.53,4.4-4.31,4.56-.93.06-3.12.2-1.78-1.62,1.8-2.44-2.22-7.12,2.78-7.7C41.11,4.41,42.08,7,42.05,9.44Z"/><path class="cls-1" d="M183,218.4c-.65.37-1.78,1.42-2.18,1.2-2.6-1.5-5.05-3.27-7.55-4.95,1.32-.73,2.63-2.06,4-2.08C180.48,212.52,182.22,214.64,183,218.4Z"/><path class="cls-1" d="M246.88,106.31c-.41,2.23-1.65,3.7-4,3.51s-3.89-1.81-3.28-4a5.45,5.45,0,0,1,3.58-3.2C245.42,102.24,246.64,104,246.88,106.31Z"/><path class="cls-1" d="M194.09,79c-2.38-.14-3.73-1.34-3.75-3.76,0-2.68,1.48-4,4.1-3.86,2.42.13,3.57,1.6,3.49,4S196.45,78.92,194.09,79Z"/><path class="cls-1" d="M239.09,123c-2.38-.14-3.73-1.34-3.75-3.76,0-2.68,1.48-4,4.1-3.86,2.42.13,3.57,1.6,3.49,4S241.45,122.92,239.09,123Z"/><path class="cls-1" d="M256.54,106.27c2.9.79,4.69,2.09,4.06,4.28a5.23,5.23,0,0,1-3.66,3.08,3.06,3.06,0,0,1-3.29-3.85C254,108.36,255.67,107.27,256.54,106.27Z"/><path class="cls-1" d="M252,120.38c2.35.14,3.81,1.27,3.88,3.67a3.73,3.73,0,1,1-7.46.24C248.32,121.91,249.69,120.67,252,120.38Z"/><path class="cls-1" d="M238,87.53c-.75,2.92-2.06,4.71-4.23,4.11A5.24,5.24,0,0,1,230.67,88a3.07,3.07,0,0,1,3.82-3.33C235.91,85,237,86.67,238,87.53Z"/><path class="cls-1" d="M213.12,70c-3-.43-4.84-1.67-4.45-3.85A5.23,5.23,0,0,1,212,62.7a3.05,3.05,0,0,1,3.63,3.52C215.45,67.66,213.88,68.92,213.12,70Z"/><path class="cls-1" d="M198.15,65.92c-2.26-.33-3.75-1.51-3.66-3.86s1.66-4,3.85-3.43a5.44,5.44,0,0,1,3.34,3.44C202.16,64.3,200.4,65.58,198.15,65.92Z"/><path class="cls-1" d="M188.93,57c-.14,2.35-1.27,3.81-3.67,3.88a3.4,3.4,0,0,1-3.85-3.61,3.4,3.4,0,0,1,3.6-3.85C187.4,53.36,188.64,54.72,188.93,57Z"/><path class="cls-1" d="M220,97.16c-.24,2.59-1.53,3.87-3.93,3.81-2.71-.07-3.9-1.67-3.7-4.25s1.77-3.48,4.1-3.34S219.9,95.06,220,97.16Z"/><path class="cls-1" d="M207.29,83c-2.36-.14-3.82-1.27-3.88-3.67a3.73,3.73,0,1,1,7.46-.24C211,81.43,209.59,82.67,207.29,83Z"/><path class="cls-1" d="M230.27,106c-2.35-.15-3.81-1.28-3.86-3.68a3.73,3.73,0,1,1,7.46-.22C233.94,104.45,232.57,105.68,230.27,106Z"/><path class="cls-1" d="M224.9,83.72c-.23,2.55-1.36,4.07-3.71,4.1s-4-1.48-3.59-3.69a5.46,5.46,0,0,1,3.28-3.5C223.13,80,224.33,81.87,224.9,83.72Z"/><path class="cls-1" d="M193,43.58c-.79,2.89-2.1,4.69-4.28,4.05A5.19,5.19,0,0,1,185.68,44a3.06,3.06,0,0,1,3.85-3.29C191,41,192,42.7,193,43.58Z"/><path class="cls-1" d="M173.19,49.34c.71,1.6,1.63,2.77,1.7,4,.15,2.37-1.32,3.64-3.7,3.66s-4.41-1.38-3.61-3.49C168.19,51.88,170.8,51,173.19,49.34Z"/><path class="cls-1" d="M256.85,245.88c-1.52-.14-3.71.45-3.43-2.17s2.17-3.49,4.54-3.56c2-.07,2.88.88,2.91,3C260.92,246.27,258.83,245.9,256.85,245.88Z"/><path class="cls-1" d="M253,93.21c-2.2,1.57-3.62,3.36-4.83,3.23s-3.25-2.13-3.23-3.3,2-3.12,3.29-3.24S250.79,91.61,253,93.21Z"/><path class="cls-1" d="M185,26.3c-2.23,1.53-3.68,3.29-4.89,3.14s-2.3-2.17-3.43-3.37c1.2-1.13,2.34-3.07,3.62-3.17S182.82,24.66,185,26.3Z"/><path class="cls-1" d="M230,70.13c-2.17,1.6-3.56,3.42-4.77,3.31s-3.28-2.08-3.29-3.24,2-3.16,3.23-3.3S227.77,68.57,230,70.13Z"/><path class="cls-1" d="M208,48.21c-2.2,1.57-3.62,3.36-4.83,3.23s-2.34-2.12-3.49-3.3c1.17-1.16,2.28-3.12,3.55-3.24S205.79,46.61,208,48.21Z"/><path class="cls-1" d="M137,42c-3.34,1.41-5,2.77-6.33,2.49s-2.47-2.14-3.68-3.31c.95-.54,2-1.63,2.83-1.52C131.67,39.86,133.41,40.73,137,42Z"/><path class="cls-1" d="M148.38,46.94c-2.25.73-3.39,1.42-4.5,1.4-2.24-.05-3.8-1.36-3.79-3.68,0-.71,1.63-2.11,1.85-2C143.84,43.71,145.6,45,148.38,46.94Z"/><path class="cls-1" d="M15.94,44.8c-.38,3.27-1.89,5.12-4.53,5.86-.48.14-1.26-.83-1.91-1.29l4.81-6Z"/><path class="cls-1" d="M261.25,231.51l-1.69,3.6c-.79-1.26-2.15-2.49-2.2-3.78s1.08-3.76,1.89-3.84C262.1,227.18,260.25,229.79,261.25,231.51Z"/><path class="cls-1" d="M238,43.23c-1.85,1.19-2.93,2.41-4,2.41-.81,0-2.46-1.85-2.27-2.36a4.48,4.48,0,0,1,2.7-2.59C235.11,40.52,236.22,41.93,238,43.23Z"/><path class="cls-1" d="M215.15,50.18c2.84.08,4.24,1.12,3.81,3.07A4.34,4.34,0,0,1,216.25,56a2.38,2.38,0,0,1-3-2.92C213.48,51.91,214.66,50.9,215.15,50.18Z"/><path class="cls-1" d="M238.2,72.17c2.84.1,4.2,1.2,3.76,3.12A4.36,4.36,0,0,1,239.21,78a2.38,2.38,0,0,1-2.93-3C236.49,73.87,237.7,72.88,238.2,72.17Z"/><path class="cls-1" d="M256.18,79.36c-1.89,1.23-3,2.56-4,2.45a4,4,0,0,1-2.72-2.54c-.43-1.92,1-3.2,2.9-2.81C253.47,76.69,254.39,77.94,256.18,79.36Z"/><path class="cls-1" d="M233.18,56.94c-1.78,1.44-2.68,2.7-3.8,2.94-1.9.41-3.35-.85-2.93-2.79a4,4,0,0,1,2.69-2.56C230.12,54.41,231.27,55.73,233.18,56.94Z"/><path class="cls-1" d="M202.28,17.36c-2.14,1.24-3.42,2.57-4.34,2.36s-2.14-1.8-2.36-2.95c-.11-.6,1.67-2.2,2.54-2.16C199.21,14.66,200.25,15.93,202.28,17.36Z"/><path class="cls-1" d="M242.77,57.08c1.51,1.93,3,3,2.91,4s-1.51,2.36-2.61,2.68c-.62.19-2.44-1.35-2.5-2.2C240.5,60.42,241.63,59.23,242.77,57.08Z"/><path class="cls-1" d="M215,21.22c-1.91,1.22-3,2.44-4.09,2.44-.82,0-2.47-1.87-2.29-2.38a4.52,4.52,0,0,1,2.73-2.6C212.12,18.5,213.24,19.91,215,21.22Z"/><path class="cls-1" d="M196.15,29.36c-.16,2.87-1.38,4.13-3.25,3.63a4.33,4.33,0,0,1-2.59-2.86c-.36-2,1.17-3.22,3.08-2.81C194.54,27.57,195.49,28.84,196.15,29.36Z"/><path class="cls-1" d="M211.18,35.36c-1.89,1.23-3,2.56-4,2.45a4,4,0,0,1-2.72-2.54c-.43-1.92,1-3.2,2.9-2.81C208.47,32.69,209.39,33.94,211.18,35.36Z"/><path class="cls-1" d="M219.77,35.08c1.51,1.93,3,3,2.91,4s-1.51,2.36-2.61,2.68c-.62.19-2.44-1.35-2.5-2.2C217.5,38.42,218.63,37.23,219.77,35.08Z"/><path class="cls-1" d="M259.73,66.66c-1.65,1-2.86,2.27-3.58,2a4.47,4.47,0,0,1-2.51-2.78c-.15-.55,1.71-2.37,2.36-2.23C257.15,63.92,258.07,65.24,259.73,66.66Z"/><path class="cls-1" d="M261.37,142.15l-1.74,3.34c-.78-1.11-2.18-2.22-2.18-3.32s1.39-2.23,2.17-3.35Z"/><path class="cls-1" d="M85.39,12.26c-1.56.81-2.33,1.53-3.11,1.56a4.42,4.42,0,0,1-4.64-3.62c-.06-.21,1.11-1.13,1.41-1C81,10,82.79,11,85.39,12.26Z"/><path class="cls-1" d="M245,251.37c-1.49,1-2.37,1.94-2.68,1.78a53.11,53.11,0,0,1-4.72-3.09c.95-.49,2-1.54,2.83-1.35C241.78,249,243,250.13,245,251.37Z"/><path class="cls-1" d="M261.4,186.28l-1.87,3.41c-.7-1.19-1.95-2.39-1.93-3.57s1.3-2.33,2-3.5Z"/><path class="cls-1" d="M246.92,44.65c1.25,1.51,2.64,2.46,2.61,3.35a2.4,2.4,0,0,1-4.78.31C244.61,47.42,245.87,46.31,246.92,44.65Z"/><path class="cls-1" d="M9.47,141A64.27,64.27,0,0,1,13,146.88c.21.47-.57,1.38-.89,2.09-1.12-1.73-2.27-3.44-3.31-5.23C8.61,143.45,9,142.85,9.47,141Z"/><path class="cls-1" d="M228.68,26.17c-1.61,1.16-2.64,2.48-3.52,2.39s-1.73-1.53-2.58-2.39c.85-.85,1.64-2.3,2.57-2.39S227.07,25,228.68,26.17Z"/><path class="cls-1" d="M10.18,104.62c-.2-3-1.92-4.42.34-4.87.24,0,1.35,2.37,1.38,3.66,0,1.11-.9,2.24-1.41,3.36C8.12,105.63,10.09,104.05,10.18,104.62Z"/><path class="cls-1" d="M168.12,213.17l-4.84-3.69c.57-.34,1.43-1.11,1.67-.95,1.52,1,2.91,2.24,4.35,3.4Z"/><path class="cls-1" d="M118,40.32l-3.36-2.61c.52-.39,1.17-1.2,1.55-1.09a45.38,45.38,0,0,1,4.52,1.88Z"/><path class="cls-1" d="M261.24,97.33l-1.61,2.21c-.52-.74-1.51-1.53-1.44-2.21.1-.87,1-1.65,1.62-2.47Z"/><path class="cls-1" d="M99.07,32.05l7.62,3.17C102.84,36.42,101.19,35.11,99.07,32.05Z"/><path class="cls-1" d="M218.67,8.34c-1.2.76-2,1.66-2.64,1.56a2.49,2.49,0,0,1-1.61-1.84,2.48,2.48,0,0,1,1.84-1.61C216.91,6.44,217.58,7.44,218.67,8.34Z"/><path class="cls-1" d="M252.35,31.83c.69,1.1,1.52,1.9,1.36,2.28-.29.71-1.17,1.17-1.8,1.73-.49-.55-1.43-1.19-1.35-1.64C250.7,33.48,251.51,32.88,252.35,31.83Z"/><path class="cls-1" d="M238.28,32.68c-.89-1.09-1.87-1.76-1.84-2.39a2.39,2.39,0,0,1,1.6-1.8,2.44,2.44,0,0,1,1.8,1.59C239.93,30.71,239,31.5,238.28,32.68Z"/><path class="cls-1" d="M231.14,247.15l-5-2.55.88-1.31,4.15,3.89Z"/><path class="cls-1" d="M91.06,189.19c1.27-2.09,2.93-3.35,6.67-2.36l-6.62,2.31Z"/><path class="cls-1" d="M3.91,131.34c-.68.3-1.55,1-2,.78A2.53,2.53,0,0,1,.69,130.2c0-.57,1-1.1,1.5-1.65Z"/><path class="cls-1" d="M185.89,12.86c.42.87.94,1.58.81,1.74A4.39,4.39,0,0,1,184.84,16c-.33.11-.91-.55-1.38-.87Z"/><path class="cls-1" d="M69.71,8.65H66.23l0-.9,3.45-.22Z"/><path class="cls-1" d="M6.54,77.33V70.16a8.3,8.3,0,0,1,1.35,1.63C8,72.1,7.71,72.65,6.54,77.33Z"/><path class="cls-1" d="M179.13,41.17c-.25-1.48-.5-3-.78-4.59,2.28,1.35,1.48,3,.78,4.61Z"/><path class="cls-1" d="M91.13,15.17h0c2.17,2,1.08,1,0,0Z"/><path class="cls-1" d="M204.2,4.17,203,5.57,202.53,5l1.63-.75Z"/><path class="cls-1" d="M32,165.14l-1.22-.47,1.17.5Z"/><path class="cls-1" d="M32,165.17l.18.24c0-.09-.09-.18-.13-.27Z"/><polygon class="cls-1" points="256.06 22.53 256.38 22.7 256.03 22.8 256.06 22.53"/><path class="cls-1" d="M19.14,161.08l.45.19-.34-.15Z"/><path class="cls-1" d="M7.19,120.18l-.07,0Z"/><path class="cls-1" d="M91.11,189.14l0,.05Z"/><polygon class="cls-1" points="19.25 161.12 18.92 161.21 19.14 161.08 19.25 161.12"/><path class="cls-1" d="M7.12,120.22l-.21-.16.28.11Z"/><path class="cls-1" d="M155.14,52.19l.11.3-.09-.31Z"/><polygon class="cls-1" points="204.16 4.27 204.1 3.94 204.2 4.17 204.16 4.27"/><path class="cls-1" d="M91.13,15.16l.23-.27-.48.07.25.21Z"/><path class="cls-1" d="M179.13,41.19l-.29,0,.29,0Z"/><path class="cls-1" d="M231.17,247.18l-.29.24.48,0-.22-.29Z"/><path class="cls-1" d="M155.16,52.18l0-.37v.38Z"/></svg>